<svg xmlns="http://www.w3.org/2000/svg" viewBox="0 0 512 512">
  <rect width="512" height="512" fill="#061d18"/>
  <path
    d="M 150 256 C 150 160 210 120 286 124 C 362 128 392 176 388 250 C 384 330 326 388 244 388 C 166 388 150 334 150 256 Z"
    stroke="rgba(125, 245, 108, 0.15)"
    stroke-width="50"
    stroke-linecap="round"
    stroke-linejoin="round"
    fill="none"
  />
  <path
    d="M 150 256 C 150 160 210 120 286 124 C 362 128 392 176 388 250 C 384 330 326 388 244 388 C 166 388 150 334 150 256 Z"
    stroke="#7df56c"
    stroke-width="26"
    stroke-linecap="round"
    stroke-linejoin="round"
    fill="none"
  />
  <circle cx="150" cy="256" r="32" fill="#7df56c" />
  <circle cx="150" cy="256" r="14" fill="#061d18" />
  <circle cx="364" cy="180" r="18" fill="#7df56c" />
  <circle cx="364" cy="180" r="8" fill="#061d18" />
</svg>